<svg width="24" height="24" viewBox="0 0 24 24" fill="none" xmlns="http://www.w3.org/2000/svg">
<path fill-rule="evenodd" clip-rule="evenodd" d="M5 12C5 11.0807 5.18106 10.1705 5.53284 9.32122C5.88463 8.47194 6.40024 7.70026 7.05025 7.05025C7.70026 6.40024 8.47194 5.88463 9.32122 5.53284C10.1705 5.18106 11.0807 5 12 5C12.9193 5 13.8295 5.18106 14.6788 5.53284C15.5281 5.88463 16.2997 6.40024 16.9497 7.05025C17.5998 7.70026 18.1154 8.47194 18.4672 9.32122C18.8189 10.1705 19 11.0807 19 12C19 13.8565 18.2625 15.637 16.9497 16.9497C15.637 18.2625 13.8565 19 12 19C10.1435 19 8.36301 18.2625 7.05025 16.9497C5.7375 15.637 5 13.8565 5 12ZM13 9C13 8.73478 12.8946 8.48043 12.7071 8.29289C12.5196 8.10536 12.2652 8 12 8C11.7348 8 11.4804 8.10536 11.2929 8.29289C11.1054 8.48043 11 8.73478 11 9V12C11.0001 12.1857 11.0519 12.3676 11.1496 12.5255C11.2472 12.6834 11.3869 12.811 11.553 12.894L13.553 13.894C13.6709 13.9576 13.8003 13.9968 13.9337 14.0094C14.067 14.022 14.2015 14.0077 14.3292 13.9673C14.4569 13.9269 14.5751 13.8613 14.677 13.7743C14.7788 13.6874 14.8622 13.5808 14.9221 13.461C14.982 13.3412 15.0172 13.2107 15.0256 13.077C15.0341 12.9433 15.0156 12.8094 14.9713 12.683C14.927 12.5566 14.8578 12.4404 14.7677 12.3413C14.6776 12.2422 14.5686 12.1622 14.447 12.106L13 11.382V9Z" fill="#FBFCFE"/>
<path d="M15 6.5V3C15 2.73478 14.8946 2.48043 14.7071 2.29289C14.5196 2.10536 14.2652 2 14 2H10C9.73478 2 9.48043 2.10536 9.29289 2.29289C9.10536 2.48043 9 2.73478 9 3V6.5M15 17.5V21C15 21.2652 14.8946 21.5196 14.7071 21.7071C14.5196 21.8946 14.2652 22 14 22H10C9.73478 22 9.48043 21.8946 9.29289 21.7071C9.10536 21.5196 9 21.2652 9 21V17.5" stroke="#FBFCFE" stroke-width="2" stroke-linecap="round" stroke-linejoin="round"/>
</svg>
