<svg width="32" height="32" viewBox="0 0 32 32" fill="none" xmlns="http://www.w3.org/2000/svg">
<path d="M5.50861 21.1404C6.29343 21.1404 6.92966 21.7766 6.92966 22.5614V23.9825C6.92943 24.6995 7.20024 25.3901 7.68779 25.9159C8.17534 26.4416 8.8436 26.7637 9.55861 26.8175L9.77177 26.8246H12.6139C13.3987 26.8246 14.0349 27.4608 14.0349 28.2456V28.2456C14.0349 29.0305 13.3987 29.6667 12.6139 29.6667H9.77177C8.26422 29.6667 6.81842 29.0678 5.75242 28.0018C4.68643 26.9358 4.08756 25.49 4.08756 23.9825V22.5614C4.08756 21.7766 4.72378 21.1404 5.50861 21.1404V21.1404ZM23.9824 14.0351C24.8406 14.0351 25.6123 14.5576 25.9311 15.3545L30.876 27.7168C31.2496 28.6508 30.5618 29.6667 29.5559 29.6667V29.6667C28.9747 29.6667 28.452 29.3129 28.236 28.7733L26.8892 25.4092C26.8878 25.4058 26.8845 25.4035 26.8808 25.4035H21.0855C21.079 25.4035 21.0733 25.4074 21.0709 25.4134L19.7281 28.7731C19.5124 29.3128 18.9898 29.6667 18.4086 29.6667V29.6667C17.4034 29.6667 16.716 28.6515 17.0893 27.7181L22.0336 15.3546C22.3523 14.5577 23.1241 14.0351 23.9824 14.0351V14.0351ZM24.2606 18.8313C24.1601 18.5798 23.8042 18.5797 23.7036 18.8311L22.3201 22.2871C22.2675 22.4185 22.3642 22.5614 22.5057 22.5614H25.4562C25.5977 22.5614 25.6944 22.4186 25.6419 22.2872L24.2606 18.8313ZM9.77177 2C10.5566 2 11.1928 2.63623 11.1928 3.42105V5.50045C11.1928 5.50505 11.1966 5.50878 11.2012 5.50878H15.877C16.4293 5.50878 16.877 5.9565 16.877 6.50878V14.4562C16.877 15.0084 16.4293 15.4562 15.877 15.4562H11.2036C11.1977 15.4562 11.1928 15.461 11.1928 15.4669V18.579C11.1928 19.3638 10.5566 20.0001 9.77177 20.0001V20.0001C8.98694 20.0001 8.35071 19.3638 8.35071 18.579V15.4669C8.35071 15.461 8.34588 15.4562 8.33992 15.4562H3.66651C3.11422 15.4562 2.6665 15.0084 2.6665 14.4562V6.50878C2.6665 5.9565 3.11422 5.50878 3.6665 5.50878H8.34238C8.34698 5.50878 8.35071 5.50505 8.35071 5.50045V3.42105C8.35071 2.63623 8.98694 2 9.77177 2V2ZM23.9823 4.08773C25.4898 4.08773 26.9356 4.6866 28.0016 5.7526C29.0676 6.81859 29.6665 8.2644 29.6665 9.77194V11.193C29.6665 11.9778 29.0303 12.614 28.2455 12.614V12.614C27.4606 12.614 26.8244 11.9778 26.8244 11.193V9.77194C26.8244 9.01817 26.525 8.29527 25.992 7.76227C25.459 7.22927 24.7361 6.92984 23.9823 6.92984H21.1402C20.3554 6.92984 19.7191 6.29361 19.7191 5.50878V5.50878C19.7191 4.72396 20.3554 4.08773 21.1402 4.08773H23.9823ZM8.35071 8.55089C8.35071 8.44043 8.26117 8.35089 8.15071 8.35089H5.80861C5.64292 8.35089 5.50861 8.4852 5.50861 8.65089V12.314C5.50861 12.4797 5.64292 12.614 5.80861 12.614H8.15071C8.26117 12.614 8.35071 12.5245 8.35071 12.414V8.55089ZM14.0349 8.65089C14.0349 8.4852 13.9006 8.35089 13.7349 8.35089H11.3928C11.2824 8.35089 11.1928 8.44043 11.1928 8.55089V12.414C11.1928 12.5245 11.2824 12.614 11.3928 12.614H13.7349C13.9006 12.614 14.0349 12.4797 14.0349 12.314V8.65089Z" fill="#FCFDFF"/>
</svg>
