<svg width="72" height="72" viewBox="0 0 72 72" fill="none" xmlns="http://www.w3.org/2000/svg">
<path d="M20.475 19C21.975 19 23.125 19.637 23.925 20.911C24.725 22.187 24.775 23.5 24.075 24.85L21 31H27C28.65 31 30.062 31.588 31.236 32.764C32.412 33.938 33 35.35 33 37V46C33 47.65 32.412 49.062 31.236 50.236C30.062 51.412 28.65 52 27 52H18C16.35 52 14.937 51.412 13.761 50.236C12.587 49.062 12 47.65 12 46V32.425C12 31.975 12.038 31.512 12.114 31.036C12.188 30.562 12.35 30.125 12.6 29.725L16.875 21.25C17.225 20.55 17.725 20 18.375 19.6C19.025 19.2 19.725 19 20.475 19ZM47.475 19C48.975 19 50.125 19.637 50.925 20.911C51.725 22.187 51.775 23.5 51.075 24.85L48 31H54C55.65 31 57.062 31.588 58.236 32.764C59.412 33.938 60 35.35 60 37V46C60 47.65 59.412 49.062 58.236 50.236C57.062 51.412 55.65 52 54 52H45C43.35 52 41.937 51.412 40.761 50.236C39.587 49.062 39 47.65 39 46V32.425C39 31.975 39.037 31.512 39.111 31.036C39.187 30.562 39.35 30.125 39.6 29.725L43.875 21.25C44.225 20.55 44.725 20 45.375 19.6C46.025 19.2 46.725 19 47.475 19Z" fill="#CACACC"/>
</svg>
