<svg width="32" height="32" viewBox="0 0 32 32" fill="none" xmlns="http://www.w3.org/2000/svg">
<g clip-path="url(#clip0_73_6458)">
<path d="M2.75717 7.30925L14.5905 19.1439C14.9406 19.4942 15.4082 19.7022 15.9028 19.7276C16.3973 19.7529 16.8838 19.5939 17.2678 19.2813L17.4198 19.1439L29.2452 7.31725C29.2838 7.46392 29.3092 7.61325 29.3225 7.76659L29.3332 7.99992V23.9999C29.3334 24.6727 29.0793 25.3207 28.6218 25.814C28.1644 26.3073 27.5374 26.6095 26.8665 26.6599L26.6665 26.6666H5.33317C4.6604 26.6668 4.01241 26.4127 3.51911 25.9553C3.0258 25.4978 2.72363 24.8708 2.67317 24.1999L2.6665 23.9999V7.99992C2.6665 7.83992 2.67984 7.68525 2.7065 7.53325L2.75717 7.30925V7.30925ZM26.6665 5.33325C26.8278 5.33325 26.9865 5.34659 27.1398 5.37459L27.3665 5.42659L16.0065 16.7866L4.6425 5.42392C4.78917 5.38392 4.94117 5.35725 5.09584 5.34392L5.33317 5.33325H26.6665Z" fill="#FB8B24"/>
</g>
<defs>
<clipPath id="clip0_73_6458">
<rect width="32" height="32" fill="white"/>
</clipPath>
</defs>
</svg>
