<svg width="24" height="24" viewBox="0 0 24 24" fill="none" xmlns="http://www.w3.org/2000/svg">
<path fill-rule="evenodd" clip-rule="evenodd" d="M11.293 2.29303C11.4805 2.10556 11.7348 2.00024 12 2.00024C12.2652 2.00024 12.5195 2.10556 12.707 2.29303C13.517 3.10303 14.68 3.58303 15.89 3.83303C17.092 4.08103 18.237 4.07903 18.89 4.00603C19.0298 3.99056 19.1712 4.00474 19.3051 4.04764C19.439 4.09054 19.5624 4.1612 19.6671 4.255C19.7719 4.3488 19.8556 4.46364 19.913 4.59202C19.9704 4.72039 20 4.85942 20 5.00003V14C20 15.3 19.432 16.449 18.696 17.395C17.958 18.343 16.999 19.158 16.081 19.814C14.9313 20.628 13.7056 21.329 12.421 21.907L12.403 21.915L12.397 21.918H12.395C12.395 21.918 12.394 21.92 12 21L11.606 21.919L11.603 21.918L11.598 21.915L11.578 21.907C11.1937 21.7339 10.8145 21.5495 10.441 21.354C9.56635 20.8985 8.72374 20.384 7.919 19.814C7.001 19.158 6.042 18.344 5.304 17.395C4.568 16.45 4 15.3 4 14V5.00003C3.99999 4.85942 4.02963 4.72039 4.08699 4.59202C4.14435 4.46364 4.22814 4.3488 4.33289 4.255C4.43764 4.1612 4.56099 4.09054 4.69489 4.04764C4.8288 4.00474 4.97024 3.99056 5.11 4.00603C5.763 4.07903 6.908 4.08103 8.11 3.83303C9.32 3.58303 10.483 3.10303 11.293 2.29303ZM11.606 21.919C11.7305 21.9724 11.8645 21.9999 12 21.9999C12.1355 21.9999 12.2695 21.9724 12.394 21.919L12 21L11.606 21.919ZM13 11V9.00003C13 8.73481 12.8946 8.48046 12.7071 8.29292C12.5196 8.10539 12.2652 8.00003 12 8.00003C11.7348 8.00003 11.4804 8.10539 11.2929 8.29292C11.1054 8.48046 11 8.73481 11 9.00003V11H9C8.73478 11 8.48043 11.1054 8.29289 11.2929C8.10536 11.4805 8 11.7348 8 12C8 12.2652 8.10536 12.5196 8.29289 12.7071C8.48043 12.8947 8.73478 13 9 13H11V15C11 15.2652 11.1054 15.5196 11.2929 15.7071C11.4804 15.8947 11.7348 16 12 16C12.2652 16 12.5196 15.8947 12.7071 15.7071C12.8946 15.5196 13 15.2652 13 15V13H15C15.2652 13 15.5196 12.8947 15.7071 12.7071C15.8946 12.5196 16 12.2652 16 12C16 11.7348 15.8946 11.4805 15.7071 11.2929C15.5196 11.1054 15.2652 11 15 11H13Z" fill="#FBFCFE"/>
</svg>
