<svg width="32" height="32" viewBox="0 0 32 32" fill="none" xmlns="http://www.w3.org/2000/svg">
<g clip-path="url(#clip0_84_192)">
<path d="M18 29.1841C24.4147 28.2188 29.3334 22.6841 29.3334 16.0001C29.3334 8.63608 23.364 2.66675 16 2.66675C8.63602 2.66675 2.66669 8.63608 2.66669 16.0001C2.66669 22.6841 7.58535 28.2201 14 29.1841V20.0001H12C11.4696 20.0001 10.9609 19.7894 10.5858 19.4143C10.2107 19.0392 10 18.5305 10 18.0001C10 17.4696 10.2107 16.9609 10.5858 16.5859C10.9609 16.2108 11.4696 16.0001 12 16.0001H14V13.3334C14 12.0957 14.4917 10.9088 15.3669 10.0336C16.242 9.15841 17.429 8.66675 18.6667 8.66675H19.3334C19.8638 8.66675 20.3725 8.87746 20.7476 9.25253C21.1226 9.62761 21.3334 10.1363 21.3334 10.6667C21.3334 11.1972 21.1226 11.7059 20.7476 12.081C20.3725 12.456 19.8638 12.6667 19.3334 12.6667H18.6667C18.4899 12.6667 18.3203 12.737 18.1953 12.862C18.0703 12.987 18 13.1566 18 13.3334V16.0001H20C20.5305 16.0001 21.0392 16.2108 21.4142 16.5859C21.7893 16.9609 22 17.4696 22 18.0001C22 18.5305 21.7893 19.0392 21.4142 19.4143C21.0392 19.7894 20.5305 20.0001 20 20.0001H18V29.1841Z" fill="#FCFDFF"/>
</g>
<defs>
<clipPath id="clip0_84_192">
<rect width="32" height="32" fill="white"/>
</clipPath>
</defs>
</svg>
