<svg width="24" height="24" viewBox="0 0 24 24" fill="none" xmlns="http://www.w3.org/2000/svg">
<path d="M12 16C15.866 16 19 12.866 19 9C19 5.13401 15.866 2 12 2C8.13401 2 5 5.13401 5 9C5 12.866 8.13401 16 12 16Z" stroke="#FBFCFE" stroke-width="2" stroke-linecap="round" stroke-linejoin="round"/>
<path d="M7 20.234V14C7.667 14.667 9.6 16 12 16C14.4 16 16.333 14.667 17 14V20.234C16.9999 20.4108 16.9528 20.5845 16.8637 20.7372C16.7746 20.89 16.6465 21.0163 16.4926 21.1035C16.3387 21.1906 16.1645 21.2353 15.9876 21.2331C15.8108 21.2309 15.6377 21.1819 15.486 21.091L12.514 19.309C12.3587 19.2159 12.181 19.1668 12 19.1668C11.819 19.1668 11.6413 19.2159 11.486 19.309L8.514 21.09C8.36238 21.1809 8.18938 21.2299 8.01263 21.2321C7.83588 21.2344 7.6617 21.1897 7.50783 21.1027C7.35396 21.0157 7.22589 20.8895 7.13669 20.7369C7.04748 20.5843 7.00032 20.4108 7 20.234Z" fill="#FBFCFE" stroke="#FBFCFE" stroke-width="2" stroke-linecap="round" stroke-linejoin="round"/>
</svg>
