<svg width="36" height="36" viewBox="0 0 36 36" fill="none" xmlns="http://www.w3.org/2000/svg">
<path fill-rule="evenodd" clip-rule="evenodd" d="M3 9C3 7.80653 3.47411 6.66193 4.31802 5.81802C5.16193 4.97411 6.30653 4.5 7.5 4.5H28.5C29.6935 4.5 30.8381 4.97411 31.682 5.81802C32.5259 6.66193 33 7.80653 33 9V27C33 28.1935 32.5259 29.3381 31.682 30.182C30.8381 31.0259 29.6935 31.5 28.5 31.5H7.5C6.30653 31.5 5.16193 31.0259 4.31802 30.182C3.47411 29.3381 3 28.1935 3 27V9ZM10.5 10.5C10.1022 10.5 9.72064 10.658 9.43934 10.9393C9.15804 11.2206 9 11.6022 9 12V18C9 18.3978 9.15804 18.7794 9.43934 19.0607C9.72064 19.342 10.1022 19.5 10.5 19.5H16.5C16.8978 19.5 17.2794 19.342 17.5607 19.0607C17.842 18.7794 18 18.3978 18 18V12C18 11.6022 17.842 11.2206 17.5607 10.9393C17.2794 10.658 16.8978 10.5 16.5 10.5H10.5ZM12 16.5V13.5H15V16.5H12ZM22.5 10.5C22.1022 10.5 21.7206 10.658 21.4393 10.9393C21.158 11.2206 21 11.6022 21 12C21 12.3978 21.158 12.7794 21.4393 13.0607C21.7206 13.342 22.1022 13.5 22.5 13.5H25.5C25.8978 13.5 26.2794 13.342 26.5607 13.0607C26.842 12.7794 27 12.3978 27 12C27 11.6022 26.842 11.2206 26.5607 10.9393C26.2794 10.658 25.8978 10.5 25.5 10.5H22.5ZM22.5 16.5C22.1022 16.5 21.7206 16.658 21.4393 16.9393C21.158 17.2206 21 17.6022 21 18C21 18.3978 21.158 18.7794 21.4393 19.0607C21.7206 19.342 22.1022 19.5 22.5 19.5H25.5C25.8978 19.5 26.2794 19.342 26.5607 19.0607C26.842 18.7794 27 18.3978 27 18C27 17.6022 26.842 17.2206 26.5607 16.9393C26.2794 16.658 25.8978 16.5 25.5 16.5H22.5ZM10.5 22.5C10.1022 22.5 9.72064 22.658 9.43934 22.9393C9.15804 23.2206 9 23.6022 9 24C9 24.3978 9.15804 24.7794 9.43934 25.0607C9.72064 25.342 10.1022 25.5 10.5 25.5H25.5C25.8978 25.5 26.2794 25.342 26.5607 25.0607C26.842 24.7794 27 24.3978 27 24C27 23.6022 26.842 23.2206 26.5607 22.9393C26.2794 22.658 25.8978 22.5 25.5 22.5H10.5Z" fill="#E9EFFF"/>
</svg>
