<svg width="32" height="32" viewBox="0 0 32 32" fill="none" xmlns="http://www.w3.org/2000/svg">
<g clip-path="url(#clip0_73_6462)">
<path fill-rule="evenodd" clip-rule="evenodd" d="M22.0695 29.5107C20.1495 29.44 14.7082 28.688 9.0095 22.9907C3.31216 17.292 2.5615 11.852 2.4895 9.93071C2.38283 7.00271 4.6255 4.15871 7.21616 3.04804C7.52813 2.91333 7.86976 2.86204 8.20754 2.89921C8.54531 2.93638 8.86762 3.06072 9.14283 3.26004C11.2762 4.81471 12.7482 7.16671 14.0122 9.01604C14.2903 9.42235 14.4092 9.91677 14.3462 10.4051C14.2833 10.8934 14.0429 11.3415 13.6708 11.664L11.0695 13.596C10.9438 13.6868 10.8554 13.8201 10.8205 13.9711C10.7857 14.1222 10.8069 14.2808 10.8802 14.4174C11.4695 15.488 12.5175 17.0827 13.7175 18.2827C14.9188 19.4827 16.5882 20.6 17.7335 21.256C17.8771 21.3367 18.0461 21.3592 18.2058 21.319C18.3655 21.2788 18.5038 21.179 18.5922 21.04L20.2855 18.4627C20.5968 18.0492 21.0561 17.7721 21.5671 17.6896C22.0781 17.6071 22.6012 17.7255 23.0268 18.02C24.9028 19.3187 27.0922 20.7654 28.6948 22.8174C28.9103 23.0946 29.0474 23.4246 29.0917 23.7729C29.1361 24.1212 29.086 24.475 28.9468 24.7974C27.8308 27.4014 25.0068 29.6187 22.0695 29.5107Z" fill="#04A777"/>
</g>
<defs>
<clipPath id="clip0_73_6462">
<rect width="32" height="32" fill="white"/>
</clipPath>
</defs>
</svg>
