<svg width="36" height="36" viewBox="0 0 36 36" fill="none" xmlns="http://www.w3.org/2000/svg">
<path d="M15 7.79393C17.25 3.89693 22.647 3.54893 26.544 5.79893C30.441 8.04893 32.838 12.8969 30.588 16.7939L25.392 13.7939L22.794 12.2939L20.196 10.7939L15 7.79393V7.79393Z" fill="#FCFDFF"/>
<path d="M26.544 5.79893C22.647 3.54893 17.25 3.89693 15 7.79393L20.196 10.7939M26.544 5.79893C30.441 8.04893 32.838 12.8969 30.588 16.7939L22.794 12.2939M26.544 5.79893L27.294 4.49993M26.544 5.79893C23.8125 6.53093 22.071 7.54643 20.196 10.7939M26.544 5.79893C27.276 8.53043 27.267 10.5464 25.392 13.7939M22.794 12.2939L20.196 10.7939M22.794 12.2939L18.294 20.0879M4.5 31.4999L5.82 29.9159C6.10994 29.5676 6.47498 29.2895 6.88774 29.1024C7.3005 28.9153 7.75027 28.8241 8.20331 28.8357C8.65635 28.8472 9.10089 28.9612 9.50358 29.1691C9.90628 29.377 10.2567 29.6733 10.5285 30.0359C10.7965 30.3936 11.141 30.6869 11.5369 30.8944C11.9327 31.1019 12.3699 31.2184 12.8166 31.2354C13.2632 31.2524 13.708 31.1694 14.1184 30.9925C14.5289 30.8156 14.8946 30.5492 15.189 30.2129L15.474 29.8859C15.7888 29.5258 16.177 29.2371 16.6126 29.0394C17.0481 28.8416 17.5209 28.7393 17.9993 28.7393C18.4776 28.7393 18.9504 28.8416 19.3859 29.0394C19.8215 29.2371 20.2097 29.5258 20.5245 29.8859L20.811 30.2129C22.068 31.6484 24.327 31.5629 25.4715 30.0374C25.7433 29.6745 26.0938 29.3779 26.4966 29.1699C26.8995 28.9619 27.3442 28.8478 27.7974 28.8362C28.2507 28.8247 28.7006 28.916 29.1135 29.1032C29.5265 29.2905 29.8916 29.5689 30.1815 29.9174L31.5 31.4999M10.062 23.9999C12.2521 22.0629 15.0762 20.9956 18 20.9999C20.9238 20.9956 23.7479 22.0629 25.938 23.9999" stroke="#FCFDFF" stroke-width="3" stroke-linecap="round" stroke-linejoin="round"/>
</svg>
