<svg width="24" height="24" viewBox="0 0 24 24" fill="none" xmlns="http://www.w3.org/2000/svg">
<path d="M19.0201 9.12101V13.392C19.0194 13.699 18.9138 13.9965 18.7209 14.2352C18.5279 14.4739 18.2592 14.6395 17.9592 14.7045C17.6592 14.7695 17.346 14.7301 17.0715 14.5927C16.797 14.4552 16.5778 14.2281 16.4501 13.949L15.4851 11.829L14.0711 13.243C13.696 13.6179 13.1874 13.8286 12.6571 13.8286C12.1267 13.8286 11.6181 13.6179 11.2431 13.243L9.41406 11.414C9.21625 11.2163 9.08153 10.9643 9.02694 10.6899C8.97236 10.4156 9.00036 10.1313 9.10741 9.87285C9.21446 9.61444 9.39574 9.39358 9.62832 9.23821C9.86091 9.08284 10.1344 8.99995 10.4141 9.00001H11.8281C12.0908 9.00008 12.3511 8.94837 12.5939 8.84782C12.8367 8.74727 13.0573 8.59986 13.2431 8.41401L14.0711 7.58601L12.0511 6.91201C11.7175 6.80031 11.436 6.57101 11.2591 6.26693C11.0823 5.96285 11.0222 5.60478 11.09 5.25962C11.1579 4.91445 11.3491 4.60579 11.6279 4.39129C11.9067 4.17679 12.254 4.07111 12.6051 4.09401L17.2531 4.40401L19.0211 2.63601C19.4921 2.16501 20.7181 1.50501 21.8491 2.63601C22.9811 3.76701 22.3211 4.99301 21.8491 5.46401L19.6071 7.70701C19.232 8.08199 19.0212 8.59062 19.0211 9.12101H19.0201Z" fill="#FBFCFE"/>
<path d="M2 14.905C2.705 13.671 3.825 12.585 5 11.701M2 22.404C3.072 19.402 5.055 16.84 7.023 14.904M7.5 21.404C8.221 19.962 9.46 18.327 10.587 16.999" stroke="#FBFCFE" stroke-width="2" stroke-linecap="round" stroke-linejoin="round"/>
</svg>
