<svg width="32" height="32" viewBox="0 0 32 32" fill="none" xmlns="http://www.w3.org/2000/svg">
<g clip-path="url(#clip0_84_186)">
<path fill-rule="evenodd" clip-rule="evenodd" d="M16 2.66675C8.63602 2.66675 2.66669 8.63608 2.66669 16.0001C2.66669 18.5201 3.36669 20.8801 4.58402 22.8907L3.39469 26.9334C3.3264 27.1655 3.32191 27.4117 3.38168 27.6462C3.44145 27.8806 3.56328 28.0947 3.73437 28.2657C3.90545 28.4368 4.11946 28.5587 4.35391 28.6184C4.58836 28.6782 4.83458 28.6737 5.06669 28.6054L9.10935 27.4161C11.1876 28.6735 13.571 29.3367 16 29.3334C23.364 29.3334 29.3334 23.3641 29.3334 16.0001C29.3334 8.63608 23.364 2.66675 16 2.66675ZM12.984 19.0174C15.6814 21.7134 18.256 22.0694 19.1654 22.1027C20.548 22.1534 21.8947 21.0974 22.4187 19.8721C22.4848 19.7197 22.5089 19.5522 22.4882 19.3874C22.4676 19.2225 22.403 19.0662 22.3014 18.9347C21.5707 18.0014 20.5827 17.3307 19.6174 16.6641C19.4158 16.5247 19.1681 16.4688 18.9263 16.5081C18.6844 16.5474 18.4671 16.6788 18.32 16.8747L17.52 18.0947C17.478 18.1603 17.4124 18.2074 17.3368 18.2262C17.2612 18.245 17.1813 18.2343 17.1134 18.1961C16.5707 17.8854 15.78 17.3574 15.212 16.7894C14.644 16.2214 14.148 15.4667 13.8694 14.9587C13.8348 14.8942 13.8248 14.8193 13.8412 14.748C13.8577 14.6767 13.8994 14.6137 13.9587 14.5707L15.1907 13.6561C15.3665 13.5032 15.48 13.291 15.5095 13.0599C15.539 12.8288 15.4825 12.5949 15.3507 12.4027C14.7534 11.5281 14.0574 10.4161 13.048 9.67875C12.9178 9.58435 12.7652 9.52549 12.6053 9.50796C12.4454 9.49043 12.2836 9.51482 12.136 9.57875C10.9094 10.1041 9.84802 11.4507 9.89869 12.8361C9.93202 13.7454 10.288 16.3201 12.984 19.0174Z" fill="#FCFDFF"/>
</g>
<defs>
<clipPath id="clip0_84_186">
<rect width="32" height="32" fill="white"/>
</clipPath>
</defs>
</svg>
